# xmcd CD database file
#
# Track frame offsets:
#	150
#	12955
#	25250
#	37727
#	50550
#	62262
#	74552
#	87270
#	101822
#	112890
#	126445
#	139310
#	151462
#	162892
#	175747
#	187490
#	199715
#	212870
#
# Disc length: 3005 seconds
#
# Revision: 0
# Processed by: cddbd v1.4PL0 Copyright (c) Steve Scherf et al.
# Submitted via: CDex 1.40Beta5
#
DISCID=020bbb12
DTITLE=Sonny Terry and Brownie McGhee - Jazz and Blues
DYEAR=1900
DGENRE=Blues
TTITLE0=Early Morming Blues
TTITLE1=Whoopin´ The Blues
TTITLE2=Beer Garden Blues
TTITLE3=Screamin´ and Cryin´ Blues
TTITLE4=Crow Jane Blues
TTITLE5=Worried Man Blues
TTITLE6=Airplane Blues
TTITLE7=Hot Headed Woman
TTITLE8=Harmonica Rag
TTITLE9=Leaving´ Blues
TTITLE10=Money Spending Woman
TTITLE11=Death of Blind Boy Fuller
TTITLE12=Got to Find Little Woman
TTITLE13=I´m a Black Woman´s Man
TTITLE14=Dealing with the Devil
TTITLE15=Double Trouble
TTITLE16=Woman I´m Done
TTITLE17=Key to my Door
EXTD=ID3G:   0
EXTT0=
EXTT1=
EXTT2=
EXTT3=
EXTT4=
EXTT5=
EXTT6=
EXTT7=
EXTT8=
EXTT9=
EXTT10=
EXTT11=
EXTT12=
EXTT13=
EXTT14=
EXTT15=
EXTT16=
EXTT17=
PLAYORDER=
